<mxfile host="app.diagrams.net" modified="2023-09-22T19:53:59.233Z" agent="Mozilla/5.0 (Windows NT 10.0; Win64; x64; rv:109.0) Gecko/20100101 Firefox/117.0" etag="nyK5JlA3Dw-xu0hgCjg6" version="21.7.1" type="github">
  <diagram name="Página-1" id="Ty_5jwe1dmtdeJB90TqP">
    <mxGraphModel dx="665" dy="739" grid="1" gridSize="10" guides="1" tooltips="1" connect="1" arrows="1" fold="1" page="1" pageScale="1" pageWidth="827" pageHeight="1169" math="0" shadow="0">
      <root>
        <mxCell id="0" />
        <mxCell id="1" parent="0" />
        <mxCell id="QidJTkGzFkj9kZsT0gb2-4" style="edgeStyle=orthogonalEdgeStyle;rounded=0;orthogonalLoop=1;jettySize=auto;html=1;" edge="1" parent="1" target="QidJTkGzFkj9kZsT0gb2-2">
          <mxGeometry relative="1" as="geometry">
            <mxPoint x="140" y="120" as="sourcePoint" />
          </mxGeometry>
        </mxCell>
        <mxCell id="QidJTkGzFkj9kZsT0gb2-5" style="edgeStyle=orthogonalEdgeStyle;rounded=0;orthogonalLoop=1;jettySize=auto;html=1;entryX=0.5;entryY=0;entryDx=0;entryDy=0;" edge="1" parent="1" source="QidJTkGzFkj9kZsT0gb2-2" target="QidJTkGzFkj9kZsT0gb2-3">
          <mxGeometry relative="1" as="geometry" />
        </mxCell>
        <mxCell id="QidJTkGzFkj9kZsT0gb2-2" value="&lt;div&gt;importar bibliotecas os, time&lt;/div&gt;" style="rounded=0;whiteSpace=wrap;html=1;" vertex="1" parent="1">
          <mxGeometry x="80" y="160" width="120" height="80" as="geometry" />
        </mxCell>
        <mxCell id="QidJTkGzFkj9kZsT0gb2-8" style="edgeStyle=orthogonalEdgeStyle;rounded=0;orthogonalLoop=1;jettySize=auto;html=1;" edge="1" parent="1" source="QidJTkGzFkj9kZsT0gb2-3" target="QidJTkGzFkj9kZsT0gb2-7">
          <mxGeometry relative="1" as="geometry" />
        </mxCell>
        <mxCell id="QidJTkGzFkj9kZsT0gb2-3" value="&lt;div&gt;declarar listas:&lt;/div&gt;&lt;div&gt;informacoes_pessoais&lt;/div&gt;&lt;div&gt;informacoes_pedido&lt;/div&gt;&lt;div&gt;info_endereco&lt;/div&gt;&lt;div&gt;info_pagamento&lt;br&gt;&lt;/div&gt;" style="rounded=0;whiteSpace=wrap;html=1;" vertex="1" parent="1">
          <mxGeometry x="80" y="280" width="120" height="80" as="geometry" />
        </mxCell>
        <mxCell id="QidJTkGzFkj9kZsT0gb2-6" value="Iniciar" style="rounded=1;whiteSpace=wrap;html=1;fillColor=#FFB366;" vertex="1" parent="1">
          <mxGeometry x="80" y="40" width="120" height="80" as="geometry" />
        </mxCell>
        <mxCell id="QidJTkGzFkj9kZsT0gb2-11" value="" style="edgeStyle=orthogonalEdgeStyle;rounded=0;orthogonalLoop=1;jettySize=auto;html=1;" edge="1" parent="1" source="QidJTkGzFkj9kZsT0gb2-7">
          <mxGeometry relative="1" as="geometry">
            <mxPoint x="140" y="520" as="targetPoint" />
          </mxGeometry>
        </mxCell>
        <mxCell id="QidJTkGzFkj9kZsT0gb2-7" value="&lt;div&gt;definir função&lt;/div&gt;&lt;div&gt;&#39;apresentacao&#39;&lt;br&gt;&lt;/div&gt;" style="rounded=0;whiteSpace=wrap;html=1;" vertex="1" parent="1">
          <mxGeometry x="80" y="400" width="120" height="80" as="geometry" />
        </mxCell>
        <mxCell id="QidJTkGzFkj9kZsT0gb2-15" value="" style="edgeStyle=orthogonalEdgeStyle;rounded=0;orthogonalLoop=1;jettySize=auto;html=1;entryX=0;entryY=0.5;entryDx=0;entryDy=0;" edge="1" parent="1" source="QidJTkGzFkj9kZsT0gb2-12" target="QidJTkGzFkj9kZsT0gb2-16">
          <mxGeometry relative="1" as="geometry">
            <mxPoint x="400" y="80" as="targetPoint" />
          </mxGeometry>
        </mxCell>
        <mxCell id="QidJTkGzFkj9kZsT0gb2-12" value="&lt;div&gt;apresentacao&lt;/div&gt;&lt;div&gt;Iniciar&lt;/div&gt;" style="ellipse;whiteSpace=wrap;html=1;aspect=fixed;fillColor=#A9C4EB;" vertex="1" parent="1">
          <mxGeometry x="280" y="40" width="80" height="80" as="geometry" />
        </mxCell>
        <mxCell id="QidJTkGzFkj9kZsT0gb2-13" value="&lt;div&gt;apresentacao&lt;/div&gt;&lt;div&gt;Terminar&lt;br&gt;&lt;/div&gt;" style="ellipse;whiteSpace=wrap;html=1;aspect=fixed;fillColor=#99CCFF;" vertex="1" parent="1">
          <mxGeometry x="1200.5" y="40" width="80" height="80" as="geometry" />
        </mxCell>
        <mxCell id="QidJTkGzFkj9kZsT0gb2-19" value="" style="edgeStyle=orthogonalEdgeStyle;rounded=0;orthogonalLoop=1;jettySize=auto;html=1;" edge="1" parent="1" source="QidJTkGzFkj9kZsT0gb2-16" target="QidJTkGzFkj9kZsT0gb2-18">
          <mxGeometry relative="1" as="geometry" />
        </mxCell>
        <mxCell id="QidJTkGzFkj9kZsT0gb2-16" value="&lt;div&gt;print(&quot;-&quot;*40)&lt;br&gt;&lt;/div&gt;" style="shape=parallelogram;perimeter=parallelogramPerimeter;whiteSpace=wrap;html=1;fixedSize=1;" vertex="1" parent="1">
          <mxGeometry x="400" y="40" width="120" height="80" as="geometry" />
        </mxCell>
        <mxCell id="QidJTkGzFkj9kZsT0gb2-21" value="" style="edgeStyle=orthogonalEdgeStyle;rounded=0;orthogonalLoop=1;jettySize=auto;html=1;" edge="1" parent="1" source="QidJTkGzFkj9kZsT0gb2-18" target="QidJTkGzFkj9kZsT0gb2-20">
          <mxGeometry relative="1" as="geometry" />
        </mxCell>
        <mxCell id="QidJTkGzFkj9kZsT0gb2-18" value="&lt;div&gt;print(&quot;~&quot; *8)&lt;/div&gt;" style="shape=parallelogram;perimeter=parallelogramPerimeter;whiteSpace=wrap;html=1;fixedSize=1;" vertex="1" parent="1">
          <mxGeometry x="560" y="40" width="120" height="80" as="geometry" />
        </mxCell>
        <mxCell id="QidJTkGzFkj9kZsT0gb2-23" value="" style="edgeStyle=orthogonalEdgeStyle;rounded=0;orthogonalLoop=1;jettySize=auto;html=1;" edge="1" parent="1" source="QidJTkGzFkj9kZsT0gb2-20" target="QidJTkGzFkj9kZsT0gb2-22">
          <mxGeometry relative="1" as="geometry" />
        </mxCell>
        <mxCell id="QidJTkGzFkj9kZsT0gb2-20" value="&lt;div&gt;print(&lt;div&gt;&quot;BEM VINDO AO SANDUREI&quot;,&lt;/div&gt;&quot;~&quot; *8)&lt;/div&gt;" style="shape=parallelogram;perimeter=parallelogramPerimeter;whiteSpace=wrap;html=1;fixedSize=1;" vertex="1" parent="1">
          <mxGeometry x="720" y="40" width="120" height="80" as="geometry" />
        </mxCell>
        <mxCell id="QidJTkGzFkj9kZsT0gb2-25" value="" style="edgeStyle=orthogonalEdgeStyle;rounded=0;orthogonalLoop=1;jettySize=auto;html=1;" edge="1" parent="1" source="QidJTkGzFkj9kZsT0gb2-22" target="QidJTkGzFkj9kZsT0gb2-24">
          <mxGeometry relative="1" as="geometry" />
        </mxCell>
        <mxCell id="QidJTkGzFkj9kZsT0gb2-22" value="&lt;div&gt;print(&quot;~&quot;*3 + &quot;&amp;nbsp; O MELHOR SANDUÍCHE DA CIDADE&amp;nbsp; &quot; + &quot;~&quot;*3 )&lt;/div&gt;" style="shape=parallelogram;perimeter=parallelogramPerimeter;whiteSpace=wrap;html=1;fixedSize=1;" vertex="1" parent="1">
          <mxGeometry x="880" y="40" width="120" height="80" as="geometry" />
        </mxCell>
        <mxCell id="QidJTkGzFkj9kZsT0gb2-26" value="" style="edgeStyle=orthogonalEdgeStyle;rounded=0;orthogonalLoop=1;jettySize=auto;html=1;" edge="1" parent="1" source="QidJTkGzFkj9kZsT0gb2-24" target="QidJTkGzFkj9kZsT0gb2-13">
          <mxGeometry relative="1" as="geometry" />
        </mxCell>
        <mxCell id="QidJTkGzFkj9kZsT0gb2-24" value="&lt;div&gt;print(&quot;-&quot;*40)&lt;br&gt;&lt;/div&gt;" style="shape=parallelogram;perimeter=parallelogramPerimeter;whiteSpace=wrap;html=1;fixedSize=1;" vertex="1" parent="1">
          <mxGeometry x="1040" y="40" width="120" height="80" as="geometry" />
        </mxCell>
        <mxCell id="QidJTkGzFkj9kZsT0gb2-27" value="" style="endArrow=none;dashed=1;html=1;dashPattern=1 3;strokeWidth=2;rounded=0;exitX=1;exitY=0.5;exitDx=0;exitDy=0;entryX=0;entryY=0.5;entryDx=0;entryDy=0;" edge="1" parent="1" source="QidJTkGzFkj9kZsT0gb2-7" target="QidJTkGzFkj9kZsT0gb2-12">
          <mxGeometry width="50" height="50" relative="1" as="geometry">
            <mxPoint x="280" y="370" as="sourcePoint" />
            <mxPoint x="240" y="80" as="targetPoint" />
            <Array as="points">
              <mxPoint x="220" y="440" />
              <mxPoint x="220" y="80" />
            </Array>
          </mxGeometry>
        </mxCell>
        <mxCell id="QidJTkGzFkj9kZsT0gb2-28" value="&lt;div&gt;definir função&lt;/div&gt;&lt;div&gt;&#39;menu1&#39;&lt;br&gt;&lt;/div&gt;" style="rounded=0;whiteSpace=wrap;html=1;" vertex="1" parent="1">
          <mxGeometry x="80" y="520" width="120" height="80" as="geometry" />
        </mxCell>
        <mxCell id="QidJTkGzFkj9kZsT0gb2-34" value="" style="edgeStyle=orthogonalEdgeStyle;rounded=0;orthogonalLoop=1;jettySize=auto;html=1;" edge="1" parent="1" source="QidJTkGzFkj9kZsT0gb2-29" target="QidJTkGzFkj9kZsT0gb2-33">
          <mxGeometry relative="1" as="geometry" />
        </mxCell>
        <mxCell id="QidJTkGzFkj9kZsT0gb2-29" value="&lt;div&gt;menu1&lt;/div&gt;&lt;div&gt;Iniciar&lt;/div&gt;" style="ellipse;whiteSpace=wrap;html=1;aspect=fixed;fillColor=#A9C4EB;" vertex="1" parent="1">
          <mxGeometry x="280" y="200" width="80" height="80" as="geometry" />
        </mxCell>
        <mxCell id="QidJTkGzFkj9kZsT0gb2-32" value="" style="endArrow=none;dashed=1;html=1;dashPattern=1 3;strokeWidth=2;rounded=0;exitX=1;exitY=0.5;exitDx=0;exitDy=0;entryX=0;entryY=0.5;entryDx=0;entryDy=0;" edge="1" parent="1" source="QidJTkGzFkj9kZsT0gb2-28" target="QidJTkGzFkj9kZsT0gb2-29">
          <mxGeometry width="50" height="50" relative="1" as="geometry">
            <mxPoint x="270" y="290" as="sourcePoint" />
            <mxPoint x="320" y="240" as="targetPoint" />
            <Array as="points">
              <mxPoint x="240" y="560" />
              <mxPoint x="240" y="240" />
            </Array>
          </mxGeometry>
        </mxCell>
        <mxCell id="QidJTkGzFkj9kZsT0gb2-36" value="" style="edgeStyle=orthogonalEdgeStyle;rounded=0;orthogonalLoop=1;jettySize=auto;html=1;" edge="1" parent="1" source="QidJTkGzFkj9kZsT0gb2-33">
          <mxGeometry relative="1" as="geometry">
            <mxPoint x="560" y="240" as="targetPoint" />
          </mxGeometry>
        </mxCell>
        <mxCell id="QidJTkGzFkj9kZsT0gb2-33" value="opcao = 0" style="rounded=0;whiteSpace=wrap;html=1;" vertex="1" parent="1">
          <mxGeometry x="400" y="200" width="120" height="80" as="geometry" />
        </mxCell>
        <mxCell id="QidJTkGzFkj9kZsT0gb2-39" value="" style="edgeStyle=orthogonalEdgeStyle;rounded=0;orthogonalLoop=1;jettySize=auto;html=1;" edge="1" parent="1" source="QidJTkGzFkj9kZsT0gb2-37" target="QidJTkGzFkj9kZsT0gb2-38">
          <mxGeometry relative="1" as="geometry" />
        </mxCell>
        <mxCell id="QidJTkGzFkj9kZsT0gb2-37" value="if opcao != 5" style="rhombus;whiteSpace=wrap;html=1;" vertex="1" parent="1">
          <mxGeometry x="560" y="200" width="120" height="80" as="geometry" />
        </mxCell>
        <mxCell id="QidJTkGzFkj9kZsT0gb2-41" value="" style="edgeStyle=orthogonalEdgeStyle;rounded=0;orthogonalLoop=1;jettySize=auto;html=1;" edge="1" parent="1" source="QidJTkGzFkj9kZsT0gb2-38" target="QidJTkGzFkj9kZsT0gb2-40">
          <mxGeometry relative="1" as="geometry" />
        </mxCell>
        <mxCell id="QidJTkGzFkj9kZsT0gb2-38" value="limpar tela do terminal" style="rounded=0;whiteSpace=wrap;html=1;" vertex="1" parent="1">
          <mxGeometry x="720" y="200" width="120" height="80" as="geometry" />
        </mxCell>
        <mxCell id="QidJTkGzFkj9kZsT0gb2-40" value="&lt;div&gt;saída:&lt;/div&gt;&lt;div&gt;&quot;É um prazer &quot; + nome + &quot; vamos continuar com o seu atendimento!&quot;&lt;br&gt;&lt;/div&gt;" style="rounded=0;whiteSpace=wrap;html=1;shape=parallelogram;perimeter=parallelogramPerimeter;fixedSize=1;" vertex="1" parent="1">
          <mxGeometry x="880" y="200" width="360" height="80" as="geometry" />
        </mxCell>
      </root>
    </mxGraphModel>
  </diagram>
</mxfile>
